<?xml version="1.0" encoding="UTF-8" standalone="no"?>
<!DOCTYPE svg PUBLIC "-//W3C//DTD SVG 1.1//EN" "http://www.w3.org/Graphics/SVG/1.1/DTD/svg11.dtd">
<svg width="100%" height="100%" viewBox="0 0 300 52" version="1.1" xmlns="http://www.w3.org/2000/svg" xmlns:xlink="http://www.w3.org/1999/xlink" xml:space="preserve" xmlns:serif="http://www.serif.com/" style="fill-rule:evenodd;clip-rule:evenodd;stroke-linejoin:round;stroke-miterlimit:2;">
    <g transform="matrix(1.10323,0,0,1.10323,102.39,41.0672)">
        <g transform="matrix(34.3088,0,0,34.3088,11.0104,8.90544)">
            <path d="M0.555,-0.212C0.555,-0.165 0.543,-0.125 0.518,-0.09C0.493,-0.056 0.458,-0.03 0.413,-0.013C0.368,0.004 0.314,0.012 0.251,0.012C0.178,0.012 0.111,0 0.05,-0.025L0.05,-0.217C0.079,-0.195 0.111,-0.178 0.147,-0.165C0.182,-0.152 0.215,-0.145 0.246,-0.145C0.269,-0.145 0.287,-0.149 0.3,-0.157C0.313,-0.166 0.319,-0.178 0.319,-0.194C0.319,-0.205 0.316,-0.215 0.309,-0.224C0.303,-0.233 0.293,-0.241 0.281,-0.248C0.268,-0.256 0.244,-0.266 0.209,-0.279C0.096,-0.322 0.04,-0.392 0.04,-0.489C0.04,-0.556 0.066,-0.611 0.117,-0.651C0.169,-0.692 0.238,-0.712 0.324,-0.712C0.349,-0.712 0.371,-0.711 0.392,-0.709C0.412,-0.707 0.431,-0.705 0.448,-0.702C0.464,-0.699 0.488,-0.693 0.518,-0.685L0.518,-0.507C0.459,-0.539 0.401,-0.555 0.344,-0.555C0.321,-0.555 0.302,-0.551 0.288,-0.542C0.273,-0.533 0.266,-0.521 0.266,-0.506C0.266,-0.491 0.272,-0.479 0.283,-0.469C0.295,-0.46 0.319,-0.447 0.356,-0.432C0.429,-0.403 0.48,-0.371 0.51,-0.336C0.54,-0.301 0.555,-0.26 0.555,-0.212Z" style="fill:rgb(242,113,0);fill-rule:nonzero;"/>
        </g>
        <g transform="matrix(34.3088,0,0,34.3088,30.6274,8.90544)">
            <path d="M0.508,0L0.477,-0.129L0.268,-0.129L0.235,0L0.007,0L0.248,-0.7L0.51,-0.7L0.737,0L0.508,0ZM0.375,-0.548L0.37,-0.548C0.369,-0.54 0.367,-0.527 0.363,-0.509C0.359,-0.491 0.34,-0.415 0.304,-0.279L0.438,-0.279L0.389,-0.469C0.382,-0.497 0.378,-0.523 0.375,-0.548Z" style="fill:rgb(242,113,0);fill-rule:nonzero;"/>
        </g>
        <g transform="matrix(34.3088,0,0,34.3088,56.359,8.90544)">
            <path d="M0.468,0L0.231,0L0.005,-0.7L0.232,-0.7L0.339,-0.269C0.347,-0.234 0.352,-0.208 0.353,-0.191L0.358,-0.191C0.36,-0.213 0.365,-0.24 0.373,-0.272L0.477,-0.7L0.697,-0.7L0.468,0Z" style="fill:rgb(242,113,0);fill-rule:nonzero;"/>
        </g>
        <g transform="matrix(34.3088,0,0,34.3088,80.4488,8.90544)">
            <path d="M0.069,0L0.069,-0.7L0.505,-0.7L0.505,-0.535L0.28,-0.535L0.28,-0.433L0.491,-0.433L0.491,-0.268L0.28,-0.268L0.28,-0.165L0.521,-0.165L0.521,0L0.069,0Z" style="fill:rgb(242,113,0);fill-rule:nonzero;"/>
        </g>
        <g transform="matrix(34.3088,0,0,34.3088,108.911,8.90544)">
            <path d="M0.044,0L0.044,-0.056C0.044,-0.096 0.049,-0.13 0.059,-0.16C0.068,-0.189 0.084,-0.216 0.105,-0.242C0.126,-0.268 0.162,-0.301 0.214,-0.341C0.251,-0.371 0.276,-0.392 0.288,-0.405C0.301,-0.417 0.31,-0.43 0.316,-0.442C0.322,-0.454 0.325,-0.467 0.325,-0.481C0.325,-0.528 0.297,-0.551 0.241,-0.551C0.184,-0.551 0.13,-0.53 0.079,-0.489L0.079,-0.659C0.118,-0.679 0.154,-0.692 0.188,-0.7C0.221,-0.708 0.256,-0.712 0.292,-0.712C0.368,-0.712 0.427,-0.694 0.468,-0.657C0.51,-0.621 0.531,-0.57 0.531,-0.504C0.531,-0.453 0.52,-0.411 0.498,-0.375C0.476,-0.34 0.436,-0.304 0.376,-0.266C0.331,-0.236 0.301,-0.215 0.286,-0.201C0.272,-0.188 0.264,-0.176 0.264,-0.167L0.537,-0.167L0.537,0L0.044,0Z" style="fill:rgb(242,113,0);fill-rule:nonzero;"/>
        </g>
        <g transform="matrix(34.3088,0,0,34.3088,129.466,8.90544)">
            <path d="M0.532,-0.237C0.532,-0.189 0.521,-0.146 0.498,-0.108C0.476,-0.07 0.443,-0.041 0.4,-0.02C0.358,0.002 0.307,0.012 0.25,0.012C0.217,0.012 0.184,0.009 0.149,0.004C0.114,-0.002 0.085,-0.009 0.063,-0.017L0.063,-0.179C0.111,-0.153 0.163,-0.14 0.217,-0.14C0.253,-0.14 0.28,-0.147 0.299,-0.16C0.317,-0.173 0.326,-0.191 0.326,-0.215C0.326,-0.266 0.284,-0.292 0.198,-0.292C0.156,-0.292 0.116,-0.288 0.08,-0.28L0.106,-0.7L0.501,-0.7L0.501,-0.538L0.267,-0.538L0.26,-0.44C0.279,-0.442 0.297,-0.443 0.313,-0.443C0.382,-0.443 0.435,-0.424 0.474,-0.387C0.513,-0.351 0.532,-0.3 0.532,-0.237Z" style="fill:rgb(242,113,0);fill-rule:nonzero;"/>
        </g>
        <g transform="matrix(34.3088,0,0,34.3088,150.021,8.90544)">
            <path d="M0.848,-0.179C0.848,-0.122 0.831,-0.076 0.798,-0.042C0.764,-0.007 0.719,0.01 0.662,0.01C0.609,0.01 0.567,-0.006 0.535,-0.039C0.504,-0.071 0.488,-0.113 0.488,-0.166C0.488,-0.224 0.505,-0.27 0.539,-0.304C0.572,-0.338 0.618,-0.355 0.674,-0.355C0.728,-0.355 0.77,-0.34 0.802,-0.309C0.833,-0.278 0.848,-0.235 0.848,-0.179ZM0.72,-0.173C0.72,-0.196 0.716,-0.214 0.707,-0.227C0.698,-0.24 0.686,-0.247 0.671,-0.247C0.654,-0.247 0.641,-0.24 0.632,-0.226C0.623,-0.212 0.618,-0.194 0.618,-0.17C0.618,-0.147 0.622,-0.13 0.631,-0.117C0.639,-0.104 0.651,-0.098 0.668,-0.098C0.685,-0.098 0.698,-0.105 0.707,-0.118C0.716,-0.131 0.72,-0.149 0.72,-0.173ZM0.302,0L0.148,0L0.598,-0.7L0.752,-0.7L0.302,0ZM0.409,-0.533C0.409,-0.475 0.392,-0.429 0.359,-0.395C0.325,-0.361 0.28,-0.344 0.224,-0.344C0.171,-0.344 0.129,-0.36 0.097,-0.393C0.066,-0.425 0.05,-0.467 0.05,-0.52C0.05,-0.577 0.066,-0.623 0.099,-0.658C0.132,-0.693 0.178,-0.71 0.235,-0.71C0.289,-0.71 0.331,-0.694 0.363,-0.663C0.394,-0.631 0.409,-0.588 0.409,-0.533ZM0.281,-0.528C0.281,-0.55 0.277,-0.568 0.268,-0.581C0.26,-0.594 0.248,-0.601 0.233,-0.601C0.216,-0.601 0.203,-0.594 0.194,-0.58C0.185,-0.566 0.18,-0.548 0.18,-0.524C0.18,-0.501 0.184,-0.484 0.193,-0.471C0.201,-0.458 0.213,-0.452 0.23,-0.452C0.246,-0.452 0.259,-0.459 0.268,-0.472C0.276,-0.485 0.281,-0.503 0.281,-0.528Z" style="fill:rgb(242,113,0);fill-rule:nonzero;"/>
        </g>
    </g>
    <g transform="matrix(1.10323,0,0,1.10323,-13.3794,41.0672)">
        <g transform="matrix(34.3088,0,0,34.3088,11.0104,8.90544)">
            <path d="M0.555,-0.212C0.555,-0.165 0.543,-0.125 0.518,-0.09C0.493,-0.056 0.458,-0.03 0.413,-0.013C0.368,0.004 0.314,0.012 0.251,0.012C0.178,0.012 0.111,0 0.05,-0.025L0.05,-0.217C0.079,-0.195 0.111,-0.178 0.147,-0.165C0.182,-0.152 0.215,-0.145 0.246,-0.145C0.269,-0.145 0.287,-0.149 0.3,-0.157C0.313,-0.166 0.319,-0.178 0.319,-0.194C0.319,-0.205 0.316,-0.215 0.309,-0.224C0.303,-0.233 0.293,-0.241 0.281,-0.248C0.268,-0.256 0.244,-0.266 0.209,-0.279C0.096,-0.322 0.04,-0.392 0.04,-0.489C0.04,-0.556 0.066,-0.611 0.117,-0.651C0.169,-0.692 0.238,-0.712 0.324,-0.712C0.349,-0.712 0.371,-0.711 0.392,-0.709C0.412,-0.707 0.431,-0.705 0.448,-0.702C0.464,-0.699 0.488,-0.693 0.518,-0.685L0.518,-0.507C0.459,-0.539 0.401,-0.555 0.344,-0.555C0.321,-0.555 0.302,-0.551 0.288,-0.542C0.273,-0.533 0.266,-0.521 0.266,-0.506C0.266,-0.491 0.272,-0.479 0.283,-0.469C0.295,-0.46 0.319,-0.447 0.356,-0.432C0.429,-0.403 0.48,-0.371 0.51,-0.336C0.54,-0.301 0.555,-0.26 0.555,-0.212Z" style="fill:white;fill-rule:nonzero;"/>
        </g>
        <g transform="matrix(34.3088,0,0,34.3088,30.6274,8.90544)">
            <path d="M0.508,0L0.477,-0.129L0.268,-0.129L0.235,0L0.007,0L0.248,-0.7L0.51,-0.7L0.737,0L0.508,0ZM0.375,-0.548L0.37,-0.548C0.369,-0.54 0.367,-0.527 0.363,-0.509C0.359,-0.491 0.34,-0.415 0.304,-0.279L0.438,-0.279L0.389,-0.469C0.382,-0.497 0.378,-0.523 0.375,-0.548Z" style="fill:white;fill-rule:nonzero;"/>
        </g>
        <g transform="matrix(34.3088,0,0,34.3088,56.359,8.90544)">
            <path d="M0.069,0L0.069,-0.7L0.28,-0.7L0.28,-0.165L0.521,-0.165L0.521,0L0.069,0Z" style="fill:white;fill-rule:nonzero;"/>
        </g>
        <g transform="matrix(34.3088,0,0,34.3088,74.9205,8.90544)">
            <path d="M0.069,0L0.069,-0.7L0.505,-0.7L0.505,-0.535L0.28,-0.535L0.28,-0.433L0.491,-0.433L0.491,-0.268L0.28,-0.268L0.28,-0.165L0.521,-0.165L0.521,0L0.069,0Z" style="fill:white;fill-rule:nonzero;"/>
        </g>
        <g transform="matrix(34.3088,0,0,34.3088,93.8507,8.90544)">
            <path d="M0.265,-0.236L0.098,-0.236L0.072,-0.7L0.291,-0.7L0.265,-0.236ZM0.299,-0.087C0.299,-0.058 0.288,-0.034 0.267,-0.016C0.246,0.003 0.218,0.012 0.183,0.012C0.149,0.012 0.121,0.003 0.099,-0.016C0.078,-0.035 0.067,-0.059 0.067,-0.087C0.067,-0.116 0.077,-0.139 0.098,-0.156C0.119,-0.174 0.148,-0.183 0.183,-0.183C0.218,-0.183 0.246,-0.174 0.267,-0.156C0.288,-0.139 0.299,-0.116 0.299,-0.087Z" style="fill:white;fill-rule:nonzero;"/>
        </g>
    </g>
    <g transform="matrix(1.01563,0,0,1.01563,-12.4163,3.7131)">
        <g transform="matrix(17.6445,0,0,17.6445,11.0104,8.90544)">
            <path d="M0.667,-0.215C0.667,-0.146 0.643,-0.093 0.595,-0.056C0.547,-0.019 0.478,0 0.388,0L0.069,0L0.069,-0.7L0.366,-0.7C0.552,-0.7 0.645,-0.644 0.645,-0.531C0.645,-0.506 0.639,-0.484 0.627,-0.464C0.616,-0.443 0.598,-0.425 0.574,-0.41C0.55,-0.395 0.524,-0.384 0.495,-0.379L0.495,-0.377C0.528,-0.373 0.558,-0.363 0.584,-0.347C0.611,-0.332 0.631,-0.312 0.646,-0.288C0.66,-0.265 0.667,-0.24 0.667,-0.215ZM0.421,-0.494C0.421,-0.537 0.387,-0.559 0.319,-0.559L0.28,-0.559L0.28,-0.427L0.341,-0.427C0.364,-0.427 0.383,-0.433 0.398,-0.446C0.413,-0.458 0.421,-0.474 0.421,-0.494ZM0.443,-0.216C0.443,-0.236 0.436,-0.253 0.421,-0.266C0.406,-0.279 0.387,-0.285 0.363,-0.285L0.28,-0.285L0.28,-0.142L0.35,-0.142C0.379,-0.142 0.401,-0.149 0.418,-0.162C0.435,-0.175 0.443,-0.193 0.443,-0.216Z" style="fill:white;fill-rule:nonzero;"/>
        </g>
        <g transform="matrix(17.6445,0,0,17.6445,23.2013,8.90544)">
            <path d="M0.069,0L0.069,-0.7L0.28,-0.7L0.28,-0.165L0.521,-0.165L0.521,0L0.069,0Z" style="fill:white;fill-rule:nonzero;"/>
        </g>
        <g transform="matrix(17.6445,0,0,17.6445,32.7472,8.90544)">
            <path d="M0.508,0L0.477,-0.129L0.268,-0.129L0.235,0L0.007,0L0.248,-0.7L0.51,-0.7L0.737,0L0.508,0ZM0.375,-0.548L0.37,-0.548C0.369,-0.54 0.367,-0.527 0.363,-0.509C0.359,-0.491 0.34,-0.415 0.304,-0.279L0.438,-0.279L0.389,-0.469C0.382,-0.497 0.378,-0.523 0.375,-0.548Z" style="fill:white;fill-rule:nonzero;"/>
        </g>
        <g transform="matrix(17.6445,0,0,17.6445,45.9806,8.90544)">
            <path d="M0.59,-0.019C0.532,0.002 0.465,0.012 0.389,0.012C0.315,0.012 0.25,-0.002 0.196,-0.031C0.142,-0.059 0.101,-0.1 0.073,-0.152C0.044,-0.205 0.03,-0.265 0.03,-0.334C0.03,-0.408 0.046,-0.474 0.078,-0.531C0.11,-0.589 0.155,-0.633 0.213,-0.665C0.271,-0.696 0.338,-0.712 0.414,-0.712C0.475,-0.712 0.533,-0.705 0.59,-0.69L0.59,-0.495C0.57,-0.507 0.547,-0.516 0.52,-0.522C0.493,-0.529 0.466,-0.532 0.438,-0.532C0.381,-0.532 0.336,-0.516 0.302,-0.483C0.269,-0.45 0.253,-0.405 0.253,-0.349C0.253,-0.293 0.269,-0.249 0.302,-0.217C0.336,-0.184 0.38,-0.168 0.435,-0.168C0.486,-0.168 0.538,-0.181 0.59,-0.207L0.59,-0.019Z" style="fill:white;fill-rule:nonzero;"/>
        </g>
        <g transform="matrix(17.6445,0,0,17.6445,57.0946,8.90544)">
            <path d="M0.456,0L0.301,-0.296C0.29,-0.319 0.284,-0.335 0.282,-0.344L0.28,-0.344L0.28,0L0.069,0L0.069,-0.7L0.28,-0.7L0.28,-0.367L0.282,-0.367C0.288,-0.385 0.295,-0.401 0.303,-0.416L0.443,-0.7L0.693,-0.7L0.494,-0.366L0.712,0L0.456,0Z" style="fill:white;fill-rule:nonzero;"/>
        </g>
        <g transform="matrix(17.6445,0,0,17.6445,74.1705,8.90544)">
            <path d="M0.28,-0.535L0.28,-0.409L0.488,-0.409L0.488,-0.244L0.28,-0.244L0.28,0L0.069,0L0.069,-0.7L0.508,-0.7L0.508,-0.535L0.28,-0.535Z" style="fill:white;fill-rule:nonzero;"/>
        </g>
        <g transform="matrix(17.6445,0,0,17.6445,83.7165,8.90544)">
            <path d="M0.432,0L0.38,-0.151C0.37,-0.181 0.357,-0.204 0.341,-0.221C0.324,-0.238 0.307,-0.246 0.288,-0.246L0.28,-0.246L0.28,0L0.069,0L0.069,-0.7L0.349,-0.7C0.447,-0.7 0.519,-0.684 0.566,-0.652C0.613,-0.62 0.636,-0.572 0.636,-0.508C0.636,-0.46 0.623,-0.419 0.595,-0.387C0.568,-0.354 0.528,-0.331 0.474,-0.316L0.474,-0.314C0.504,-0.305 0.528,-0.29 0.548,-0.27C0.568,-0.249 0.585,-0.219 0.601,-0.178L0.67,0L0.432,0ZM0.412,-0.478C0.412,-0.501 0.405,-0.52 0.391,-0.534C0.376,-0.547 0.354,-0.554 0.323,-0.554L0.28,-0.554L0.28,-0.394L0.318,-0.394C0.346,-0.394 0.369,-0.402 0.386,-0.418C0.403,-0.434 0.412,-0.454 0.412,-0.478Z" style="fill:white;fill-rule:nonzero;"/>
        </g>
        <g transform="matrix(17.6445,0,0,17.6445,95.7523,8.90544)">
            <rect x="0.069" y="-0.7" width="0.211" height="0.7" style="fill:white;fill-rule:nonzero;"/>
        </g>
        <g transform="matrix(17.6445,0,0,17.6445,101.904,8.90544)">
            <path d="M0.729,-0.359C0.729,-0.288 0.714,-0.225 0.684,-0.171C0.655,-0.116 0.612,-0.074 0.557,-0.044C0.501,-0.015 0.438,0 0.365,0L0.069,0L0.069,-0.7L0.359,-0.7C0.606,-0.7 0.729,-0.586 0.729,-0.359ZM0.505,-0.357C0.505,-0.391 0.498,-0.422 0.484,-0.449C0.47,-0.477 0.451,-0.498 0.425,-0.513C0.399,-0.528 0.369,-0.535 0.334,-0.535L0.28,-0.535L0.28,-0.165L0.339,-0.165C0.389,-0.165 0.43,-0.182 0.46,-0.217C0.49,-0.252 0.505,-0.298 0.505,-0.357Z" style="fill:white;fill-rule:nonzero;"/>
        </g>
        <g transform="matrix(17.6445,0,0,17.6445,115.292,8.90544)">
            <path d="M0.508,0L0.477,-0.129L0.268,-0.129L0.235,0L0.007,0L0.248,-0.7L0.51,-0.7L0.737,0L0.508,0ZM0.375,-0.548L0.37,-0.548C0.369,-0.54 0.367,-0.527 0.363,-0.509C0.359,-0.491 0.34,-0.415 0.304,-0.279L0.438,-0.279L0.389,-0.469C0.382,-0.497 0.378,-0.523 0.375,-0.548Z" style="fill:white;fill-rule:nonzero;"/>
        </g>
        <g transform="matrix(17.6445,0,0,17.6445,128.526,8.90544)">
            <path d="M0.427,-0.243L0.427,0L0.216,0L0.216,-0.24L0,-0.7L0.242,-0.7L0.318,-0.48C0.323,-0.465 0.327,-0.452 0.329,-0.441C0.331,-0.43 0.333,-0.419 0.336,-0.407L0.338,-0.407C0.342,-0.437 0.347,-0.46 0.352,-0.476L0.427,-0.7L0.65,-0.7L0.427,-0.243Z" style="fill:white;fill-rule:nonzero;"/>
        </g>
        <g transform="matrix(17.6445,0,0,17.6445,144.895,8.90544)">
            <path d="M0.528,0.001L0.487,-0.047C0.465,-0.03 0.434,-0.016 0.395,-0.005C0.356,0.007 0.318,0.012 0.282,0.012C0.202,0.012 0.14,-0.005 0.096,-0.04C0.052,-0.074 0.03,-0.123 0.03,-0.185C0.03,-0.222 0.043,-0.257 0.07,-0.291C0.097,-0.324 0.137,-0.354 0.192,-0.382C0.145,-0.433 0.122,-0.485 0.122,-0.536C0.122,-0.588 0.142,-0.631 0.183,-0.663C0.224,-0.696 0.277,-0.712 0.343,-0.712C0.405,-0.712 0.455,-0.697 0.493,-0.668C0.531,-0.639 0.55,-0.6 0.55,-0.552C0.55,-0.513 0.539,-0.48 0.516,-0.452C0.494,-0.424 0.458,-0.398 0.409,-0.376L0.509,-0.263C0.523,-0.292 0.531,-0.332 0.531,-0.382L0.69,-0.382C0.69,-0.335 0.683,-0.292 0.67,-0.255C0.657,-0.217 0.635,-0.183 0.605,-0.152L0.745,0.001L0.528,0.001ZM0.389,-0.541C0.389,-0.555 0.384,-0.567 0.374,-0.577C0.364,-0.587 0.352,-0.592 0.338,-0.592C0.322,-0.592 0.309,-0.587 0.299,-0.579C0.289,-0.57 0.284,-0.558 0.284,-0.542C0.284,-0.532 0.287,-0.522 0.293,-0.511C0.299,-0.5 0.313,-0.483 0.335,-0.458C0.355,-0.47 0.369,-0.483 0.377,-0.496C0.385,-0.51 0.389,-0.524 0.389,-0.541ZM0.265,-0.297C0.251,-0.29 0.24,-0.279 0.231,-0.263C0.221,-0.247 0.217,-0.229 0.217,-0.209C0.217,-0.181 0.226,-0.159 0.244,-0.142C0.263,-0.126 0.285,-0.117 0.312,-0.117C0.329,-0.117 0.345,-0.12 0.36,-0.125C0.376,-0.131 0.389,-0.138 0.399,-0.146L0.265,-0.297Z" style="fill:white;fill-rule:nonzero;"/>
        </g>
        <g transform="matrix(17.6445,0,0,17.6445,162.833,8.90544)">
            <path d="M0.59,-0.019C0.532,0.002 0.465,0.012 0.389,0.012C0.315,0.012 0.25,-0.002 0.196,-0.031C0.142,-0.059 0.101,-0.1 0.073,-0.152C0.044,-0.205 0.03,-0.265 0.03,-0.334C0.03,-0.408 0.046,-0.474 0.078,-0.531C0.11,-0.589 0.155,-0.633 0.213,-0.665C0.271,-0.696 0.338,-0.712 0.414,-0.712C0.475,-0.712 0.533,-0.705 0.59,-0.69L0.59,-0.495C0.57,-0.507 0.547,-0.516 0.52,-0.522C0.493,-0.529 0.466,-0.532 0.438,-0.532C0.381,-0.532 0.336,-0.516 0.302,-0.483C0.269,-0.45 0.253,-0.405 0.253,-0.349C0.253,-0.293 0.269,-0.249 0.302,-0.217C0.336,-0.184 0.38,-0.168 0.435,-0.168C0.486,-0.168 0.538,-0.181 0.59,-0.207L0.59,-0.019Z" style="fill:white;fill-rule:nonzero;"/>
        </g>
        <g transform="matrix(17.6445,0,0,17.6445,173.947,8.90544)">
            <path d="M0.427,-0.243L0.427,0L0.216,0L0.216,-0.24L0,-0.7L0.242,-0.7L0.318,-0.48C0.323,-0.465 0.327,-0.452 0.329,-0.441C0.331,-0.43 0.333,-0.419 0.336,-0.407L0.338,-0.407C0.342,-0.437 0.347,-0.46 0.352,-0.476L0.427,-0.7L0.65,-0.7L0.427,-0.243Z" style="fill:white;fill-rule:nonzero;"/>
        </g>
        <g transform="matrix(17.6445,0,0,17.6445,185.414,8.90544)">
            <path d="M0.667,-0.215C0.667,-0.146 0.643,-0.093 0.595,-0.056C0.547,-0.019 0.478,0 0.388,0L0.069,0L0.069,-0.7L0.366,-0.7C0.552,-0.7 0.645,-0.644 0.645,-0.531C0.645,-0.506 0.639,-0.484 0.627,-0.464C0.616,-0.443 0.598,-0.425 0.574,-0.41C0.55,-0.395 0.524,-0.384 0.495,-0.379L0.495,-0.377C0.528,-0.373 0.558,-0.363 0.584,-0.347C0.611,-0.332 0.631,-0.312 0.646,-0.288C0.66,-0.265 0.667,-0.24 0.667,-0.215ZM0.421,-0.494C0.421,-0.537 0.387,-0.559 0.319,-0.559L0.28,-0.559L0.28,-0.427L0.341,-0.427C0.364,-0.427 0.383,-0.433 0.398,-0.446C0.413,-0.458 0.421,-0.474 0.421,-0.494ZM0.443,-0.216C0.443,-0.236 0.436,-0.253 0.421,-0.266C0.406,-0.279 0.387,-0.285 0.363,-0.285L0.28,-0.285L0.28,-0.142L0.35,-0.142C0.379,-0.142 0.401,-0.149 0.418,-0.162C0.435,-0.175 0.443,-0.193 0.443,-0.216Z" style="fill:white;fill-rule:nonzero;"/>
        </g>
        <g transform="matrix(17.6445,0,0,17.6445,197.605,8.90544)">
            <path d="M0.069,0L0.069,-0.7L0.505,-0.7L0.505,-0.535L0.28,-0.535L0.28,-0.433L0.491,-0.433L0.491,-0.268L0.28,-0.268L0.28,-0.165L0.521,-0.165L0.521,0L0.069,0Z" style="fill:white;fill-rule:nonzero;"/>
        </g>
        <g transform="matrix(17.6445,0,0,17.6445,207.34,8.90544)">
            <path d="M0.432,0L0.38,-0.151C0.37,-0.181 0.357,-0.204 0.341,-0.221C0.324,-0.238 0.307,-0.246 0.288,-0.246L0.28,-0.246L0.28,0L0.069,0L0.069,-0.7L0.349,-0.7C0.447,-0.7 0.519,-0.684 0.566,-0.652C0.613,-0.62 0.636,-0.572 0.636,-0.508C0.636,-0.46 0.623,-0.419 0.595,-0.387C0.568,-0.354 0.528,-0.331 0.474,-0.316L0.474,-0.314C0.504,-0.305 0.528,-0.29 0.548,-0.27C0.568,-0.249 0.585,-0.219 0.601,-0.178L0.67,0L0.432,0ZM0.412,-0.478C0.412,-0.501 0.405,-0.52 0.391,-0.534C0.376,-0.547 0.354,-0.554 0.323,-0.554L0.28,-0.554L0.28,-0.394L0.318,-0.394C0.346,-0.394 0.369,-0.402 0.386,-0.418C0.403,-0.434 0.412,-0.454 0.412,-0.478Z" style="fill:white;fill-rule:nonzero;"/>
        </g>
        <g transform="matrix(17.6445,0,0,17.6445,224.278,8.90544)">
            <path d="M0.71,0L0.71,-0.384C0.71,-0.42 0.711,-0.46 0.713,-0.503L0.715,-0.535L0.709,-0.535C0.699,-0.48 0.691,-0.442 0.685,-0.421L0.582,0L0.384,0L0.276,-0.416C0.273,-0.426 0.265,-0.466 0.253,-0.535L0.247,-0.535C0.252,-0.426 0.254,-0.357 0.254,-0.33L0.254,0L0.069,0L0.069,-0.7L0.385,-0.7L0.481,-0.32C0.483,-0.312 0.486,-0.296 0.49,-0.272C0.494,-0.248 0.496,-0.23 0.497,-0.217L0.5,-0.217C0.504,-0.246 0.509,-0.281 0.517,-0.322L0.607,-0.7L0.918,-0.7L0.918,0L0.71,0Z" style="fill:white;fill-rule:nonzero;"/>
        </g>
        <g transform="matrix(17.6445,0,0,17.6445,241.69,8.90544)">
            <path d="M0.735,-0.352C0.735,-0.282 0.72,-0.219 0.689,-0.163C0.659,-0.108 0.617,-0.065 0.563,-0.034C0.508,-0.003 0.447,0.012 0.38,0.012C0.314,0.012 0.254,-0.003 0.2,-0.032C0.147,-0.062 0.105,-0.104 0.075,-0.158C0.045,-0.212 0.03,-0.273 0.03,-0.341C0.03,-0.412 0.045,-0.476 0.075,-0.533C0.105,-0.59 0.148,-0.634 0.203,-0.665C0.257,-0.696 0.319,-0.712 0.389,-0.712C0.456,-0.712 0.516,-0.697 0.569,-0.667C0.622,-0.637 0.663,-0.595 0.692,-0.54C0.72,-0.485 0.735,-0.422 0.735,-0.352ZM0.511,-0.346C0.511,-0.404 0.5,-0.449 0.478,-0.482C0.456,-0.516 0.426,-0.532 0.387,-0.532C0.345,-0.532 0.313,-0.516 0.289,-0.484C0.266,-0.452 0.254,-0.407 0.254,-0.349C0.254,-0.292 0.266,-0.248 0.289,-0.216C0.312,-0.184 0.344,-0.168 0.384,-0.168C0.408,-0.168 0.43,-0.175 0.45,-0.189C0.469,-0.204 0.484,-0.224 0.495,-0.251C0.506,-0.278 0.511,-0.309 0.511,-0.346Z" style="fill:white;fill-rule:nonzero;"/>
        </g>
        <g transform="matrix(17.6445,0,0,17.6445,255.191,8.90544)">
            <path d="M0.558,0L0.311,-0.338C0.292,-0.365 0.276,-0.389 0.263,-0.41L0.261,-0.41C0.263,-0.376 0.264,-0.337 0.264,-0.294L0.264,0L0.069,0L0.069,-0.7L0.268,-0.7L0.505,-0.379L0.528,-0.346C0.533,-0.34 0.537,-0.333 0.54,-0.328C0.544,-0.322 0.547,-0.317 0.549,-0.312L0.551,-0.312C0.549,-0.326 0.548,-0.351 0.548,-0.386L0.548,-0.7L0.743,-0.7L0.743,0L0.558,0Z" style="fill:white;fill-rule:nonzero;"/>
        </g>
        <g transform="matrix(17.6445,0,0,17.6445,269.518,8.90544)">
            <path d="M0.729,-0.359C0.729,-0.288 0.714,-0.225 0.684,-0.171C0.655,-0.116 0.612,-0.074 0.557,-0.044C0.501,-0.015 0.438,0 0.365,0L0.069,0L0.069,-0.7L0.359,-0.7C0.606,-0.7 0.729,-0.586 0.729,-0.359ZM0.505,-0.357C0.505,-0.391 0.498,-0.422 0.484,-0.449C0.47,-0.477 0.451,-0.498 0.425,-0.513C0.399,-0.528 0.369,-0.535 0.334,-0.535L0.28,-0.535L0.28,-0.165L0.339,-0.165C0.389,-0.165 0.43,-0.182 0.46,-0.217C0.49,-0.252 0.505,-0.298 0.505,-0.357Z" style="fill:white;fill-rule:nonzero;"/>
        </g>
        <g transform="matrix(17.6445,0,0,17.6445,282.907,8.90544)">
            <path d="M0.508,0L0.477,-0.129L0.268,-0.129L0.235,0L0.007,0L0.248,-0.7L0.51,-0.7L0.737,0L0.508,0ZM0.375,-0.548L0.37,-0.548C0.369,-0.54 0.367,-0.527 0.363,-0.509C0.359,-0.491 0.34,-0.415 0.304,-0.279L0.438,-0.279L0.389,-0.469C0.382,-0.497 0.378,-0.523 0.375,-0.548Z" style="fill:white;fill-rule:nonzero;"/>
        </g>
        <g transform="matrix(17.6445,0,0,17.6445,296.14,8.90544)">
            <path d="M0.427,-0.243L0.427,0L0.216,0L0.216,-0.24L0,-0.7L0.242,-0.7L0.318,-0.48C0.323,-0.465 0.327,-0.452 0.329,-0.441C0.331,-0.43 0.333,-0.419 0.336,-0.407L0.338,-0.407C0.342,-0.437 0.347,-0.46 0.352,-0.476L0.427,-0.7L0.65,-0.7L0.427,-0.243Z" style="fill:white;fill-rule:nonzero;"/>
        </g>
    </g>
</svg>
