<svg viewBox="0 0 254 36" xmlns="http://www.w3.org/2000/svg" fill-rule="evenodd" clip-rule="evenodd" stroke-linejoin="round" stroke-miterlimit="2"><path d="M0.2,0.01c0.171,0 0.196,-0.086 0.196,-0.147c0,-0.103 -0.07,-0.134 -0.137,-0.153c-0.063,-0.018 -0.114,-0.026 -0.114,-0.074c0,-0.04 0.04,-0.055 0.083,-0.055c0.054,0 0.112,0.029 0.137,0.054l0.011,-0.106c-0.027,-0.018 -0.092,-0.037 -0.157,-0.037c-0.141,0 -0.183,0.089 -0.183,0.159c0,0.096 0.074,0.119 0.144,0.14c0.049,0.015 0.092,0.029 0.092,0.071c0,0.025 -0.016,0.055 -0.076,0.055c-0.056,0 -0.123,-0.026 -0.154,-0.05l-0.011,0.106c0.029,0.019 0.091,0.037 0.169,0.037Z" fill="#b4bbc1" fill-rule="nonzero" transform="matrix(34.5323 0 0 34.22243 46.93 27.446)"/><path d="M0.494,0l0,-0.5l-0.124,0l0,0.364c-0.023,0.027 -0.053,0.042 -0.094,0.042c-0.07,0 -0.099,-0.044 -0.099,-0.137l0,-0.269l-0.124,0l0,0.269c0,0.141 0.056,0.241 0.212,0.241c0.039,0 0.082,-0.018 0.111,-0.04l0.002,0.03l0.116,0Z" fill="#b4bbc1" fill-rule="nonzero" transform="matrix(34.5323 0 0 34.22243 61.537 27.446)"/><path d="M0.26,0.25c0.154,0 0.239,-0.064 0.239,-0.161c0,-0.121 -0.13,-0.142 -0.201,-0.151c-0.082,-0.01 -0.125,-0.017 -0.125,-0.041c0,-0.007 0.004,-0.013 0.011,-0.016c0.017,0.003 0.034,0.005 0.053,0.005c0.131,0 0.202,-0.09 0.202,-0.197c0,-0.04 -0.01,-0.079 -0.03,-0.11c0.011,-0.001 0.022,-0.001 0.028,-0.001l0.045,0l0.008,-0.078l-0.032,0c-0.047,0 -0.087,0.011 -0.107,0.022c-0.03,-0.019 -0.069,-0.03 -0.114,-0.03c-0.131,0 -0.203,0.09 -0.203,0.197c0,0.066 0.027,0.125 0.077,0.161c-0.033,0.016 -0.05,0.037 -0.05,0.068c0,0.033 0.018,0.055 0.045,0.072c-0.053,0.028 -0.082,0.064 -0.082,0.112c0,0.074 0.07,0.148 0.236,0.148l0,0Zm-0.023,-0.667c0.06,0 0.091,0.042 0.091,0.106c0,0.064 -0.031,0.106 -0.091,0.106c-0.061,0 -0.092,-0.042 -0.092,-0.106c0,-0.064 0.031,-0.106 0.092,-0.106l0,0Zm0.019,0.447c0.063,0.007 0.133,0.016 0.133,0.064c0,0.043 -0.058,0.068 -0.135,0.068c-0.081,0 -0.127,-0.028 -0.127,-0.072c0,-0.038 0.033,-0.057 0.069,-0.069c0.022,0.004 0.042,0.007 0.06,0.009l0,0Z" fill="#b4bbc1" fill-rule="nonzero" transform="matrix(34.5323 0 0 34.22243 80.599 27.446)"/><path d="M0.487,-0.092l-0.016,0c-0.036,0 -0.044,-0.005 -0.044,-0.08l0,-0.135c0,-0.145 -0.069,-0.201 -0.181,-0.201c-0.062,0 -0.122,0.015 -0.182,0.044l0.011,0.101c0.053,-0.026 0.092,-0.038 0.137,-0.038c0.064,0 0.087,0.025 0.09,0.082c-0.094,0.003 -0.281,0.038 -0.281,0.179c0,0.095 0.065,0.15 0.145,0.15c0.06,0 0.12,-0.021 0.153,-0.058c0.019,0.035 0.056,0.058 0.112,0.058l0.045,0l0.011,-0.102Zm-0.184,-0.029c-0.026,0.025 -0.063,0.036 -0.085,0.036c-0.047,0 -0.067,-0.019 -0.067,-0.06c0,-0.059 0.082,-0.087 0.152,-0.09l0,0.114Z" fill="#b4bbc1" fill-rule="nonzero" transform="matrix(34.5323 0 0 34.22243 97.9 27.446)"/><path d="M0.343,-0.508l-0.033,0c-0.057,0 -0.107,0.034 -0.133,0.061l-0.003,-0.053l-0.116,0l0,0.5l0.124,0l0,-0.341c0.014,-0.028 0.05,-0.05 0.091,-0.05l0.046,0l0.024,-0.117Z" fill="#b4bbc1" fill-rule="nonzero" transform="matrix(34.5323 0 0 34.22243 115.097 27.446)"/><path d="M0.271,0.01c0.08,0 0.118,-0.017 0.15,-0.037l-0.011,-0.106c-0.041,0.027 -0.081,0.041 -0.129,0.041c-0.08,0 -0.126,-0.064 -0.126,-0.157c0,-0.093 0.046,-0.157 0.126,-0.157c0.048,0 0.088,0.014 0.129,0.041l0.011,-0.106c-0.032,-0.02 -0.07,-0.037 -0.15,-0.037c-0.16,0 -0.243,0.119 -0.243,0.259c0,0.14 0.083,0.259 0.243,0.259Z" fill="#b4bbc1" fill-rule="nonzero" transform="matrix(34.5323 0 0 34.22243 126.596 27.446)"/><path d="M0.487,-0.092l-0.016,0c-0.036,0 -0.044,-0.005 -0.044,-0.08l0,-0.135c0,-0.145 -0.069,-0.201 -0.181,-0.201c-0.062,0 -0.122,0.015 -0.182,0.044l0.011,0.101c0.053,-0.026 0.092,-0.038 0.137,-0.038c0.064,0 0.087,0.025 0.09,0.082c-0.094,0.003 -0.281,0.038 -0.281,0.179c0,0.095 0.065,0.15 0.145,0.15c0.06,0 0.12,-0.021 0.153,-0.058c0.019,0.035 0.056,0.058 0.112,0.058l0.045,0l0.011,-0.102Zm-0.184,-0.029c-0.026,0.025 -0.063,0.036 -0.085,0.036c-0.047,0 -0.067,-0.019 -0.067,-0.06c0,-0.059 0.082,-0.087 0.152,-0.09l0,0.114Z" fill="#b4bbc1" fill-rule="nonzero" transform="matrix(34.5323 0 0 34.22243 142.067 27.446)"/><path d="M0.242,-0.092c-0.049,0 -0.06,0 -0.06,-0.08l0,-0.578l-0.124,0l0,0.629c0,0.072 0.039,0.131 0.128,0.131l0.045,0l0.011,-0.102Z" fill="#b4bbc1" fill-rule="nonzero" transform="matrix(34.5323 0 0 34.22243 159.264 27.446)"/><path d="M0.48,-0.223c0.005,-0.024 0.008,-0.046 0.008,-0.068c0,-0.132 -0.094,-0.217 -0.22,-0.217c-0.154,0 -0.24,0.12 -0.24,0.259c0,0.14 0.09,0.259 0.271,0.259c0.071,0 0.129,-0.018 0.167,-0.038l-0.006,-0.105c-0.041,0.022 -0.107,0.041 -0.154,0.041c-0.066,0 -0.135,-0.038 -0.149,-0.131l0.323,0Zm-0.208,-0.183c0.067,0 0.09,0.054 0.09,0.099l-0.202,0c0.012,-0.057 0.048,-0.099 0.112,-0.099Z" fill="#b4bbc1" fill-rule="nonzero" transform="matrix(34.5323 0 0 34.22243 168.173 27.446)"/><path d="M0.499,0l0,-0.269c0,-0.141 -0.057,-0.239 -0.213,-0.239c-0.039,0 -0.081,0.017 -0.11,0.038l-0.002,-0.03l-0.116,0l0,0.5l0.124,0l0,-0.363c0.023,-0.027 0.052,-0.043 0.094,-0.043c0.07,0 0.099,0.044 0.099,0.137l0,0.269l0.124,0Z" fill="#b4bbc1" fill-rule="nonzero" transform="matrix(34.5323 0 0 34.22243 185.957 27.446)"/><path d="M0.514,0l0,-0.75l-0.124,0l0,0.275c-0.032,-0.021 -0.066,-0.033 -0.117,-0.033c-0.16,0 -0.245,0.119 -0.245,0.259c0,0.14 0.085,0.259 0.245,0.259c0.054,0 0.087,-0.014 0.122,-0.038l0.002,0.028l0.117,0Zm-0.233,-0.406c0.08,0 0.115,0.064 0.115,0.157c0,0.093 -0.035,0.157 -0.115,0.157c-0.08,0 -0.126,-0.064 -0.126,-0.157c0,-0.093 0.046,-0.157 0.126,-0.157Z" fill="#b4bbc1" fill-rule="nonzero" transform="matrix(34.5323 0 0 34.22243 205.019 27.446)"/><path d="M0.487,-0.092l-0.016,0c-0.036,0 -0.044,-0.005 -0.044,-0.08l0,-0.135c0,-0.145 -0.069,-0.201 -0.181,-0.201c-0.062,0 -0.122,0.015 -0.182,0.044l0.011,0.101c0.053,-0.026 0.092,-0.038 0.137,-0.038c0.064,0 0.087,0.025 0.09,0.082c-0.094,0.003 -0.281,0.038 -0.281,0.179c0,0.095 0.065,0.15 0.145,0.15c0.06,0 0.12,-0.021 0.153,-0.058c0.019,0.035 0.056,0.058 0.112,0.058l0.045,0l0.011,-0.102Zm-0.184,-0.029c-0.026,0.025 -0.063,0.036 -0.085,0.036c-0.047,0 -0.067,-0.019 -0.067,-0.06c0,-0.059 0.082,-0.087 0.152,-0.09l0,0.114Z" fill="#b4bbc1" fill-rule="nonzero" transform="matrix(34.5323 0 0 34.22243 224.737 27.446)"/><path d="M0.343,-0.508l-0.033,0c-0.057,0 -0.107,0.034 -0.133,0.061l-0.003,-0.053l-0.116,0l0,0.5l0.124,0l0,-0.341c0.014,-0.028 0.05,-0.05 0.091,-0.05l0.046,0l0.024,-0.117Z" fill="#b4bbc1" fill-rule="nonzero" transform="matrix(34.5323 0 0 34.22243 241.934 27.446)"/><g><path d="M1054.02,1351c0.078,-1.82 0.803,-3.548 2.033,-4.843c1.313,-1.381 3.093,-2.157 4.95,-2.157l0,0c1.857,0 3.637,0.776 4.95,2.157c1.23,1.295 1.955,3.023 2.033,4.843l46.034,0c0.078,-1.82 0.803,-3.548 2.033,-4.843c1.313,-1.381 3.093,-2.157 4.95,-2.157l0,0c1.857,0 3.637,0.776 4.95,2.157c1.23,1.295 1.955,3.023 2.033,4.843l2.362,0c15.271,0.009 27.655,13.083 27.655,29.186l0,75.628c0,16.103 -12.384,29.177 -27.655,29.186l-78.69,0c-15.263,0 -27.655,-13.078 -27.655,-29.186l0,-75.628c0,-16.103 12.384,-29.177 27.655,-29.186l2.362,0Zm68.983,117c4.784,-0.004 9.356,-1.999 12.728,-5.547c3.376,-3.552 5.272,-8.37 5.272,-13.393c0,-11.417 0,-25.396 0,-34.142c0,-2.233 -0.843,-4.374 -2.343,-5.952c-1.5,-1.579 -3.535,-2.466 -5.657,-2.466c-14.339,0 -44.194,0 -57.874,0c-3.936,0 -7.126,-3.357 -7.126,-7.498c0,-0.001 0,-0.003 0,-0.004c0,-4.141 3.19,-7.498 7.126,-7.498c16.789,0 57.939,0 64.874,0c0.552,0 1,-0.471 1,-1.052c0,-1.704 0,-5.261 0,-9.051c0,-7.399 -5.7,-13.397 -12.732,-13.397c0,0 -0.001,0 -0.001,0c-0.071,0 -0.139,0.03 -0.189,0.082c-0.05,0.053 -0.078,0.124 -0.078,0.199c0,0.007 0,0.013 0,0.02c0,3.589 -2.765,6.499 -6.176,6.499c-0.547,0 -1.101,0 -1.648,0c-3.411,0 -6.176,-2.91 -6.176,-6.499c0,0 0,-0.001 0,-0.002c0,-0.165 -0.127,-0.299 -0.284,-0.299c-3.671,0 -41.761,0 -45.432,0c-0.157,0 -0.284,0.134 -0.284,0.299c0,0.001 0,0.002 0,0.002c0,3.589 -2.765,6.499 -6.176,6.499c-0.547,0 -1.101,0 -1.648,0c-3.411,0 -6.176,-2.91 -6.176,-6.499c0,-0.007 0,-0.013 0,-0.02c0,-0.075 -0.028,-0.146 -0.078,-0.199c-0.05,-0.052 -0.118,-0.082 -0.189,-0.082c0,0 -0.001,0 -0.001,0c-3.377,0 -6.615,1.411 -9.003,3.924c-2.388,2.512 -3.729,5.92 -3.729,9.473c0,12.075 0,29.457 0,39.685c0,2.233 0.843,4.374 2.343,5.952c1.5,1.579 3.535,2.466 5.657,2.466c14.339,0 44.194,0 57.874,0c3.936,0 7.126,3.357 7.126,7.498c0,0.001 0,0.003 0,0.004c0,4.141 -3.19,7.498 -7.126,7.498c-16.789,0 -57.939,0 -64.874,0c-0.552,0 -1,0.471 -1,1.052c0,0.809 0,2.036 0,3.508c0,10.46 8.059,18.94 18,18.94l64,0Z" fill="#b4bbc1" transform="matrix(.26945 0 0 .25532 -275.918 -343.149)"/></g></svg>